<svg width="24" height="24" viewBox="0 0 24 24" fill="none" xmlns="http://www.w3.org/2000/svg">
<path fill-rule="evenodd" clip-rule="evenodd" d="M19.5705 4.42498C19.0286 3.88233 17.9165 3.60511 16.1271 4.20156L7.63785 7.03131C7.63769 7.03136 7.63801 7.03126 7.63785 7.03131C6.2585 7.49275 5.28213 8.00871 4.66583 8.51802C4.04685 9.02954 3.86743 9.46483 3.86743 9.7838C3.86743 10.1025 4.04662 10.5371 4.66522 11.0472C5.28135 11.5553 6.25719 12.0694 7.63673 12.5284L10.1571 13.3685C10.3811 13.4432 10.5568 13.6189 10.6314 13.8429L11.4714 16.3629C11.9304 17.7422 12.4452 18.7183 12.9539 19.3344C13.4646 19.9529 13.9002 20.1325 14.2199 20.1325C14.5397 20.1325 14.9752 19.9529 15.486 19.3344C15.9947 18.7183 16.5093 17.7426 16.9683 16.3633L19.7979 7.87456C19.7978 7.87482 19.7979 7.8743 19.7979 7.87456C20.3895 6.08502 20.1132 4.96851 19.5705 4.42498ZM20.6319 3.36511C21.7616 4.4965 21.89 6.32553 21.222 8.34553L21.2214 8.34722L18.3916 16.8368C18.3915 16.837 18.3916 16.8367 18.3916 16.8368C17.9006 18.3123 17.3126 19.4781 16.6426 20.2895C15.9746 21.0984 15.1552 21.6325 14.2199 21.6325C13.2847 21.6325 12.4652 21.0984 11.7972 20.2895C11.1273 19.4781 10.5394 18.3127 10.0484 16.8372L9.327 14.673L7.16313 13.9517C7.16301 13.9516 7.16326 13.9517 7.16313 13.9517C5.68785 13.4608 4.5222 12.8735 3.71089 12.2045C2.902 11.5374 2.36743 10.7188 2.36743 9.7838C2.36743 8.84901 2.90176 8.02993 3.71029 7.36176C4.52142 6.69144 5.68661 6.10231 7.16201 5.60878L15.6528 2.77854C17.6734 2.10498 19.5012 2.23276 20.6319 3.36511Z" fill="#3800B0"/>
<path fill-rule="evenodd" clip-rule="evenodd" d="M14.2195 9.52899C14.5128 9.82147 14.5134 10.2963 14.2209 10.5896L10.6409 14.1796C10.3484 14.4729 9.87357 14.4736 9.58027 14.1811C9.28697 13.8886 9.28631 13.4138 9.57879 13.1205L13.1588 9.53047C13.4513 9.23717 13.9262 9.2365 14.2195 9.52899Z" fill="#3800B0"/>
</svg>
