<svg width="20" height="21" viewBox="0 0 20 21" fill="none" xmlns="http://www.w3.org/2000/svg">
<path fill-rule="evenodd" clip-rule="evenodd" d="M10.0013 3.22171C5.74411 3.22171 2.29297 6.67285 2.29297 10.93C2.29297 15.1872 5.74411 18.6384 10.0013 18.6384C14.2585 18.6384 17.7096 15.1872 17.7096 10.93C17.7096 6.67285 14.2585 3.22171 10.0013 3.22171ZM1.04297 10.93C1.04297 5.98249 5.05375 1.97171 10.0013 1.97171C14.9489 1.97171 18.9596 5.98249 18.9596 10.93C18.9596 15.8776 14.9489 19.8884 10.0013 19.8884C5.05375 19.8884 1.04297 15.8776 1.04297 10.93Z" fill="white"/>
<path fill-rule="evenodd" clip-rule="evenodd" d="M10 8.22171C10.3452 8.22171 10.625 8.50153 10.625 8.84671V13.8467C10.625 14.1919 10.3452 14.4717 10 14.4717C9.65482 14.4717 9.375 14.1919 9.375 13.8467V8.84671C9.375 8.50153 9.65482 8.22171 10 8.22171Z" fill="white"/>
<path fill-rule="evenodd" clip-rule="evenodd" d="M9.55806 7.57142C9.80214 7.32735 10.1979 7.32735 10.4419 7.57142L12.9419 10.0714C13.186 10.3155 13.186 10.7112 12.9419 10.9553C12.6979 11.1994 12.3021 11.1994 12.0581 10.9553L10 8.89725L7.94194 10.9553C7.69786 11.1994 7.30214 11.1994 7.05806 10.9553C6.81398 10.7112 6.81398 10.3155 7.05806 10.0714L9.55806 7.57142Z" fill="white"/>
</svg>
