<svg width="30" height="30" viewBox="0 0 30 30" fill="none" xmlns="http://www.w3.org/2000/svg">
<rect width="30" height="30" rx="15" fill="#0B0023"/>
<path d="M4.22016 14.9515C4.22016 14.9515 3.44009 18.9086 4.81664 18.9086C6.19318 18.9086 6.83555 17.1174 6.83555 17.1174C6.83555 17.1174 7.04673 19 8.15715 19C9.26756 19 10.7542 17.4617 10.9744 12.7336C10.9744 12.7336 11.0968 11.4421 10.0926 11.4421C10.0019 11.442 9.91478 11.4773 9.8499 11.5404C9.78502 11.6036 9.74756 11.6895 9.74555 11.7798C9.72045 13.0308 9.5416 17.345 8.31859 17.8028C8.31859 17.8028 7.24164 18.2657 8.47686 12.8678C8.47686 12.8678 8.63514 11.9295 7.84059 11.9539C7.04605 11.9782 6.72724 15.0612 6.72724 15.0612C6.72724 15.0612 6.00528 17.352 5.39321 17.5225C4.78114 17.6929 5.53995 15.1708 5.40542 14.9148C5.27089 14.6588 5.08729 14.4645 4.8302 14.4519C4.57312 14.4393 4.25792 14.7403 4.22016 14.9515Z" fill="white"/>
<path d="M11.6104 13.4809C11.4494 14.0538 10.9513 16.0269 11.0225 18.3096C11.0225 18.3096 11.3411 18.8726 11.8931 18.5729C11.9405 18.5468 11.9805 18.509 12.0091 18.4632C12.0378 18.4173 12.0541 18.3649 12.0565 18.311C12.0834 17.7292 12.2252 15.6315 12.9076 13.7329C12.9247 13.6853 12.9322 13.6349 12.9296 13.5844C12.927 13.5339 12.9144 13.4845 12.8925 13.4389C12.8706 13.3933 12.8399 13.3525 12.8021 13.3188C12.7643 13.285 12.7201 13.2591 12.6722 13.2425C12.4502 13.1673 12.1501 13.1171 11.8494 13.2236C11.7919 13.2444 11.7402 13.2787 11.6986 13.3234C11.657 13.3682 11.6268 13.4222 11.6104 13.4809Z" fill="white"/>
<path d="M11.8761 12.488C11.8761 12.488 12.078 13.0331 12.797 12.6456C12.8268 12.6296 12.8528 12.6075 12.8735 12.5809C12.8943 12.5543 12.9092 12.5236 12.9173 12.4909C12.9747 12.2579 13.142 11.6542 13.4398 11.1703C13.4548 11.1462 13.4645 11.1192 13.4682 11.0911C13.4719 11.063 13.4696 11.0344 13.4614 11.0073C13.4531 10.9802 13.4392 10.9551 13.4205 10.9337C13.4017 10.9124 13.3787 10.8952 13.3528 10.8835C13.1102 10.7731 12.6887 10.6671 12.3073 10.9987C11.7291 11.5009 11.8761 12.488 11.8761 12.488Z" fill="white"/>
<path d="M13.3446 14.4931C13.5058 13.8712 14.1201 11.9415 16.1399 11.7159C16.3832 11.6858 16.6296 11.7367 16.8408 11.8606C17.0796 12.005 17.2987 12.2687 17.164 12.7388C16.9069 13.6345 15.8978 13.4517 15.9708 12.7023C15.9708 12.7023 15.0284 13.0108 14.6252 14.2362C14.6171 14.2603 14.6159 14.2863 14.622 14.3111C14.628 14.3359 14.641 14.3584 14.6593 14.3762C14.6777 14.3939 14.7007 14.4062 14.7258 14.4114C14.7509 14.4167 14.7769 14.4148 14.8009 14.4059C15.2466 14.2404 16.1616 14.0083 16.6776 14.5942C17.2655 15.2613 16.6959 16.4493 16.6959 16.4493C16.6959 16.4493 15.6572 18.5262 13.8646 18.7275C13.5444 18.7636 13.1083 18.538 12.9278 18.2723C12.6739 17.8983 12.6762 16.3944 13.5383 16.309C13.8614 16.2768 14.1567 16.7098 13.9749 17.1662C13.9694 17.1799 13.9671 17.1946 13.9683 17.2093C13.9694 17.224 13.974 17.2382 13.9816 17.2508C13.9893 17.2634 13.9998 17.2741 14.0123 17.2819C14.0247 17.2898 14.0389 17.2947 14.0536 17.2962C14.3724 17.3288 15.2163 17.2511 15.8776 15.72C15.9119 15.6442 15.9271 15.5612 15.9217 15.4782C15.9086 15.3206 15.8125 15.1269 15.3938 15.2213C14.7889 15.3564 13.6086 15.8697 13.3491 15.0132C13.2998 14.8435 13.2982 14.6636 13.3446 14.4931Z" fill="white"/>
<path d="M19.3686 9.28881C18.8567 10.1582 17.3087 12.6888 16.9922 18.0768C16.9922 18.0768 17.3257 18.8978 18.0967 18.2763C18.0967 18.2763 18.4637 15.1325 18.794 14.4989C19.4527 13.236 19.9811 13.061 20.2013 13.1464C20.4216 13.2317 20.1401 14.036 19.6752 15.3755C19.2103 16.715 19.2347 18.3252 19.663 18.6656C19.9513 18.8953 20.3008 18.694 20.4982 18.5382C20.5436 18.5024 20.577 18.4538 20.5942 18.3988C20.6113 18.3437 20.6114 18.2848 20.5943 18.2297C20.5149 17.9737 20.3987 17.4511 20.5195 16.8499C20.6909 15.997 21.5532 13.9498 21.6952 13.3772C21.842 12.7802 21.5851 12.157 20.8134 12.1464C19.909 12.1342 19.1854 12.6217 19.1854 12.6217C19.1854 12.6217 19.6627 10.9645 20.7517 9.35681C20.7517 9.35681 20.6732 8.63627 19.9872 8.81438C19.726 8.88466 19.5035 9.0553 19.3686 9.28881Z" fill="white"/>
<path d="M25.3448 7.87884C24.87 8.23911 23.4482 9.16229 22.1232 11.0264C22.1232 11.0264 21.8657 12.0172 22.487 12.1108C22.5407 12.1186 22.5954 12.1124 22.646 12.093C22.6966 12.0736 22.7414 12.0416 22.776 12.0001C23.15 11.5522 24.5335 9.96365 26.2282 8.85831C26.2706 8.83063 26.3072 8.79485 26.3356 8.75304C26.3641 8.71122 26.384 8.66421 26.3942 8.61471C26.4043 8.5652 26.4045 8.51418 26.3948 8.4646C26.3851 8.41501 26.3655 8.36784 26.3374 8.32579C26.2056 8.13328 25.9962 7.91261 25.6919 7.81737C25.6333 7.7993 25.5712 7.79545 25.5108 7.80615C25.4505 7.81684 25.3935 7.84176 25.3448 7.87884Z" fill="white"/>
<path d="M23.3334 7.96997C23.7229 8.30975 24.7766 9.29598 25.7565 10.9422C25.9657 11.2934 25.7631 11.7503 25.3604 11.8264C25.3344 11.8314 25.3073 11.8352 25.2788 11.8379C25.1716 11.848 24.9496 11.791 24.8944 11.7095C24.5953 11.2763 23.824 9.94153 22.3459 8.83889C22.1902 8.72338 22.1748 8.49821 22.3147 8.3406C22.4685 8.16722 22.7005 7.97268 23.0073 7.89792C23.0635 7.88296 23.1224 7.88169 23.1792 7.89424C23.2359 7.90678 23.2888 7.93276 23.3334 7.96997Z" fill="white"/>
</svg>
