<svg width="1631" height="939" viewBox="0 0 1631 939" fill="none" xmlns="http://www.w3.org/2000/svg">
<path d="M198.323 376.53C196.41 364.577 147.669 98.3127 -46.8107 37.1228C-122.788 13.2234 -197.332 27.5646 -233.17 35.212C-514.142 95.4447 -604.455 286.181 -544.246 647.577C-484.038 1008.97 1924.3 998.934 2124.99 858.391C2325.69 717.848 2104.92 5.09573 1743.67 85.4059C1382.42 165.716 1342.28 486.957 1342.28 486.957C1341.82 442.976 1334.65 235.511 1171.69 85.4059C1067.04 -11.1563 949.971 -35.5363 900.754 -45.0982C699.579 -84.296 540.938 -6.85413 499.365 15.1344C284.335 128.906 212.659 332.073 198.323 376.53Z" fill="#2D008D"/>
</svg>
