<svg width="25" height="25" viewBox="0 0 25 25" fill="none" xmlns="http://www.w3.org/2000/svg">
<path fill-rule="evenodd" clip-rule="evenodd" d="M3.59467 3.52472C4.92914 2.19025 6.92603 1.68005 9.5 1.68005H15.5C18.074 1.68005 20.0709 2.19025 21.4053 3.52472C22.7398 4.85919 23.25 6.85608 23.25 9.43005V15.4301C23.25 18.004 22.7398 20.0009 21.4053 21.3354C20.0709 22.6699 18.074 23.1801 15.5 23.1801H9.5C6.92603 23.1801 4.92914 22.6699 3.59467 21.3354C2.2602 20.0009 1.75 18.004 1.75 15.4301V9.43005C1.75 6.85608 2.2602 4.85919 3.59467 3.52472ZM4.65533 4.58538C3.7398 5.50092 3.25 7.00403 3.25 9.43005V15.4301C3.25 17.8561 3.7398 19.3592 4.65533 20.2747C5.57086 21.1903 7.07397 21.6801 9.5 21.6801H15.5C17.926 21.6801 19.4291 21.1903 20.3447 20.2747C21.2602 19.3592 21.75 17.8561 21.75 15.4301V9.43005C21.75 7.00403 21.2602 5.50092 20.3447 4.58538C19.4291 3.66985 17.926 3.18005 15.5 3.18005H9.5C7.07397 3.18005 5.57086 3.66985 4.65533 4.58538Z" fill="#2D008D"/>
<path fill-rule="evenodd" clip-rule="evenodd" d="M9.5 7.18005C8.80964 7.18005 8.25 7.7397 8.25 8.43005C8.25 9.12041 8.80964 9.68005 9.5 9.68005C10.1904 9.68005 10.75 9.12041 10.75 8.43005C10.75 7.7397 10.1904 7.18005 9.5 7.18005ZM6.75 8.43005C6.75 6.91127 7.98122 5.68005 9.5 5.68005C11.0188 5.68005 12.25 6.91127 12.25 8.43005C12.25 9.94884 11.0188 11.1801 9.5 11.1801C7.98122 11.1801 6.75 9.94884 6.75 8.43005Z" fill="#2D008D"/>
<path fill-rule="evenodd" clip-rule="evenodd" d="M20.3813 13.499C19.8824 13.0704 19.0376 13.0704 18.5387 13.499L14.3787 17.069C14.3786 17.0691 14.3788 17.0689 14.3787 17.069C13.3176 17.9802 11.6423 17.9803 10.5813 17.069L10.5749 17.0635L10.2484 16.7765C9.80001 16.3938 9.03368 16.3468 8.51784 16.6929L3.58806 20.0027C3.24417 20.2336 2.77822 20.142 2.54733 19.7981C2.31644 19.4542 2.40804 18.9883 2.75194 18.7574L7.68194 15.4474C8.74502 14.7342 10.2568 14.8061 11.2288 15.6412L11.2351 15.6467L11.5615 15.9335C12.0608 16.3597 12.9033 16.3589 13.4013 15.9311L17.5613 12.3611C17.5614 12.3611 17.5612 12.3612 17.5613 12.3611C18.6224 11.4499 20.2977 11.4498 21.3587 12.3611C21.3587 12.3611 21.3587 12.3611 21.3587 12.3611L22.9887 13.7611C23.3029 14.031 23.3388 14.5045 23.0689 14.8187C22.7991 15.133 22.3256 15.1689 22.0113 14.899L20.3813 13.499Z" fill="#2D008D"/>
</svg>
