<svg width="24" height="24" viewBox="0 0 24 24" fill="none" xmlns="http://www.w3.org/2000/svg">
<path fill-rule="evenodd" clip-rule="evenodd" d="M12 2.75C6.89137 2.75 2.75 6.89137 2.75 12C2.75 17.1086 6.89137 21.25 12 21.25C17.1086 21.25 21.25 17.1086 21.25 12C21.25 6.89137 17.1086 2.75 12 2.75ZM1.25 12C1.25 6.06294 6.06294 1.25 12 1.25C17.9371 1.25 22.75 6.06294 22.75 12C22.75 17.9371 17.9371 22.75 12 22.75C6.06294 22.75 1.25 17.9371 1.25 12Z" fill="#3800B0"/>
<path fill-rule="evenodd" clip-rule="evenodd" d="M7.25156 3C7.25156 2.58579 7.58735 2.25 8.00156 2.25H9.00156C9.24271 2.25 9.46915 2.36596 9.61011 2.56162C9.75106 2.75729 9.78933 3.0088 9.71295 3.23754C7.81443 8.92336 7.81443 15.0766 9.71295 20.7625C9.78933 20.9912 9.75106 21.2427 9.61011 21.4384C9.46915 21.634 9.24271 21.75 9.00156 21.75H8.00156C7.58735 21.75 7.25156 21.4142 7.25156 21C7.25156 20.593 7.5757 20.2618 7.9799 20.2503C6.39212 14.8661 6.39212 9.13389 7.97989 3.74969C7.5757 3.73823 7.25156 3.40697 7.25156 3Z" fill="#3800B0"/>
<path fill-rule="evenodd" clip-rule="evenodd" d="M14.7627 2.28881C15.1556 2.15763 15.5804 2.36978 15.7116 2.76267C17.7131 8.75684 17.7131 15.2436 15.7116 21.2377C15.5804 21.6306 15.1556 21.8428 14.7627 21.7116C14.3698 21.5804 14.1576 21.1556 14.2888 20.7627C16.1873 15.0768 16.1873 8.92357 14.2888 3.23774C14.1576 2.84485 14.3698 2.42 14.7627 2.28881Z" fill="#3800B0"/>
<path fill-rule="evenodd" clip-rule="evenodd" d="M2.56162 14.3915C2.75729 14.2505 3.0088 14.2122 3.23754 14.2886C8.92336 16.1871 15.0766 16.1871 20.7625 14.2886C20.9912 14.2122 21.2427 14.2505 21.4384 14.3915C21.634 14.5324 21.75 14.7589 21.75 15V16C21.75 16.4142 21.4142 16.75 21 16.75C20.593 16.75 20.2618 16.4259 20.2503 16.0217C14.8661 17.6094 9.13389 17.6094 3.74969 16.0217C3.73823 16.4259 3.40697 16.75 3 16.75C2.58579 16.75 2.25 16.4142 2.25 16V15C2.25 14.7589 2.36596 14.5324 2.56162 14.3915Z" fill="#3800B0"/>
<path fill-rule="evenodd" clip-rule="evenodd" d="M20.7627 9.71149C15.0768 7.81297 8.92357 7.81297 3.23774 9.71149C2.84485 9.84268 2.42 9.63052 2.28881 9.23763C2.15763 8.84474 2.36978 8.41989 2.76267 8.28871C8.75684 6.28723 15.2436 6.28723 21.2377 8.28871C21.6306 8.41989 21.8428 8.84474 21.7116 9.23763C21.5804 9.63052 21.1556 9.84268 20.7627 9.71149Z" fill="#3800B0"/>
</svg>
