<svg width="25" height="24" viewBox="0 0 25 24" fill="none" xmlns="http://www.w3.org/2000/svg">
<path fill-rule="evenodd" clip-rule="evenodd" d="M3.89447 3.09467C5.22894 1.7602 7.22583 1.25 9.7998 1.25H15.7998C18.3738 1.25 20.3707 1.7602 21.7051 3.09467C23.0396 4.42914 23.5498 6.42603 23.5498 9V15C23.5498 17.574 23.0396 19.5709 21.7051 20.9053C20.3707 22.2398 18.3738 22.75 15.7998 22.75H9.7998C7.22583 22.75 5.22894 22.2398 3.89447 20.9053C2.56001 19.5709 2.0498 17.574 2.0498 15V9C2.0498 6.42603 2.56001 4.42914 3.89447 3.09467ZM4.95513 4.15533C4.0396 5.07086 3.5498 6.57397 3.5498 9V15C3.5498 17.426 4.0396 18.9291 4.95513 19.8447C5.87067 20.7602 7.37378 21.25 9.7998 21.25H15.7998C18.2258 21.25 19.7289 20.7602 20.6445 19.8447C21.56 18.9291 22.0498 17.426 22.0498 15V9C22.0498 6.57397 21.56 5.07086 20.6445 4.15533C19.7289 3.2398 18.2258 2.75 15.7998 2.75H9.7998C7.37378 2.75 5.87067 3.2398 4.95513 4.15533Z" fill="#BFACE9"/>
<path fill-rule="evenodd" clip-rule="evenodd" d="M12.7998 1.25C13.214 1.25 13.5498 1.58579 13.5498 2V22C13.5498 22.4142 13.214 22.75 12.7998 22.75C12.3856 22.75 12.0498 22.4142 12.0498 22V2C12.0498 1.58579 12.3856 1.25 12.7998 1.25Z" fill="#BFACE9"/>
<path fill-rule="evenodd" clip-rule="evenodd" d="M2.0498 9.5C2.0498 9.08579 2.38559 8.75 2.7998 8.75H12.7998C13.214 8.75 13.5498 9.08579 13.5498 9.5C13.5498 9.91421 13.214 10.25 12.7998 10.25H2.7998C2.38559 10.25 2.0498 9.91421 2.0498 9.5Z" fill="#BFACE9"/>
<path fill-rule="evenodd" clip-rule="evenodd" d="M12.0498 14.5C12.0498 14.0858 12.3856 13.75 12.7998 13.75H22.7998C23.214 13.75 23.5498 14.0858 23.5498 14.5C23.5498 14.9142 23.214 15.25 22.7998 15.25H12.7998C12.3856 15.25 12.0498 14.9142 12.0498 14.5Z" fill="#BFACE9"/>
</svg>
