<svg width="49" height="49" viewBox="0 0 49 49" fill="none" xmlns="http://www.w3.org/2000/svg">
<rect x="0.5" y="0.16748" width="48" height="48" rx="24" fill="#160046"/>
<path d="M22.07 30.9876C21.88 30.9876 21.69 30.9176 21.54 30.7676L15.47 24.6976C15.18 24.4076 15.18 23.9276 15.47 23.6376L21.54 17.5676C21.83 17.2776 22.31 17.2776 22.6 17.5676C22.89 17.8576 22.89 18.3376 22.6 18.6276L17.06 24.1676L22.6 29.7076C22.89 29.9976 22.89 30.4776 22.6 30.7676C22.46 30.9176 22.26 30.9876 22.07 30.9876Z" fill="white"/>
<path d="M33 24.9175H16.17C15.76 24.9175 15.42 24.5775 15.42 24.1675C15.42 23.7575 15.76 23.4175 16.17 23.4175H33C33.41 23.4175 33.75 23.7575 33.75 24.1675C33.75 24.5775 33.41 24.9175 33 24.9175Z" fill="white"/>
</svg>
