<svg width="294" height="287" viewBox="0 0 294 287" fill="none" xmlns="http://www.w3.org/2000/svg">
<path d="M161.174 236.418C161.174 236.418 193.655 221.225 226.795 204.515C259.936 187.804 293.922 185.144 293.79 156.95C293.659 128.755 232.671 22.9317 215.074 6.4361C197.477 -10.0592 148.824 11.897 83.5664 41.4965C60.2845 56.0645 1.70842 68.1553 0.97244 95.9623C0.691683 106.383 39.0499 178.746 54.746 217.259C61.5092 233.871 66.2914 243.549 76.3123 247.618C84.5326 250.949 87.821 254.87 105.361 251.69C115.588 249.824 114.954 249.302 120.523 247.622C121.32 249.988 122.448 253.618 123.345 258.109C126.649 274.455 124.919 282.805 130.91 286.05C132.109 286.731 133.273 286.786 133.776 286.819C138.615 287.094 139.029 286 149.078 264.402C152.213 257.666 156.495 248.166 161.174 236.418Z" fill="#6033C0"/>
</svg>
