<svg width="24" height="24" viewBox="0 0 24 24" fill="none" xmlns="http://www.w3.org/2000/svg">
<path fill-rule="evenodd" clip-rule="evenodd" d="M8.99859 2.75C6.95391 2.75 5.30859 4.40311 5.30859 6.44C5.30859 8.42302 6.85767 10.032 8.81348 10.1189C8.93208 10.1106 9.05739 10.1102 9.1756 10.1188C11.1295 10.031 12.6795 8.42308 12.6886 6.43847C12.6878 4.40339 11.0339 2.75 8.99859 2.75ZM3.80859 6.44C3.80859 3.57689 6.12328 1.25 8.99859 1.25C11.8628 1.25 14.1886 3.57579 14.1886 6.44L14.1886 6.44313C14.1769 9.24352 11.9695 11.5259 9.18379 11.6196C9.15048 11.6207 9.11713 11.6196 9.08397 11.6163C9.03574 11.6115 8.96369 11.6108 8.8965 11.6169C8.86555 11.6197 8.83446 11.6206 8.8034 11.6196C6.01819 11.526 3.80859 9.24337 3.80859 6.44Z" fill="#3800B0"/>
<path fill-rule="evenodd" clip-rule="evenodd" d="M15.6574 4C15.6574 3.58579 15.9932 3.25 16.4074 3.25C18.763 3.25 20.6574 5.15718 20.6574 7.5C20.6574 9.79545 18.8363 11.6645 16.5655 11.7495C16.525 11.751 16.4845 11.7492 16.4444 11.7442C16.4294 11.7423 16.3988 11.7411 16.3602 11.7454C15.9486 11.7912 15.5777 11.4945 15.532 11.0828C15.4863 10.6711 15.7829 10.3003 16.1946 10.2546C16.3124 10.2415 16.4357 10.2385 16.5575 10.2483C18.0042 10.169 19.1574 8.9683 19.1574 7.5C19.1574 5.98282 17.9318 4.75 16.4074 4.75C15.9932 4.75 15.6574 4.41421 15.6574 4Z" fill="#3800B0"/>
<path fill-rule="evenodd" clip-rule="evenodd" d="M9.17125 12.4375C11.0995 12.4375 13.0657 12.9214 14.5853 13.9363C15.9512 14.8454 16.7338 16.1198 16.7338 17.4913C16.7338 18.8626 15.9513 20.1393 14.586 21.0532L14.5858 21.0533C13.0616 22.0732 11.0928 22.56 9.16375 22.56C7.23504 22.56 5.26666 22.0734 3.74257 21.0539C2.37646 20.1448 1.59375 18.8703 1.59375 17.4987C1.59375 16.1274 2.37619 14.8507 3.74154 13.9368L3.74429 13.9349L3.74429 13.9349C5.27273 12.9215 7.24281 12.4375 9.17125 12.4375ZM4.57458 15.1842C3.52094 15.89 3.09375 16.7429 3.09375 17.4987C3.09375 18.2544 3.52076 19.1047 4.57418 19.8056L4.57582 19.8067C5.80161 20.6268 7.46283 21.06 9.16375 21.06C10.8646 21.06 12.5258 20.6269 13.7515 19.8068C14.8062 19.1007 15.2338 18.2474 15.2338 17.4913C15.2338 16.7355 14.8067 15.8853 13.7533 15.1844L13.7522 15.1837C12.5318 14.3686 10.8731 13.9375 9.17125 13.9375C7.47032 13.9375 5.80602 14.3682 4.57458 15.1842Z" fill="#3800B0"/>
<path fill-rule="evenodd" clip-rule="evenodd" d="M17.6383 13.8353C17.7294 13.4312 18.1308 13.1775 18.5349 13.2685C19.3243 13.4464 20.099 13.7638 20.7526 14.2621C21.6937 14.969 22.22 15.9542 22.22 16.9952C22.22 18.0359 21.694 19.0208 20.7534 19.7276C20.092 20.2346 19.3053 20.5652 18.493 20.7344C18.0875 20.8189 17.6902 20.5586 17.6058 20.1531C17.5213 19.7476 17.7815 19.3504 18.187 19.2659C18.8133 19.1355 19.3854 18.8869 19.8432 18.5353L19.85 18.5301L19.85 18.5302C20.4673 18.0672 20.72 17.5032 20.72 16.9952C20.72 16.4871 20.4673 15.9231 19.85 15.4602L19.8448 15.4563L19.8448 15.4562C19.3989 15.1157 18.8347 14.8737 18.2051 14.7318C17.801 14.6408 17.5473 14.2394 17.6383 13.8353Z" fill="#3800B0"/>
</svg>
