<svg width="49" height="49" viewBox="0 0 49 49" fill="none" xmlns="http://www.w3.org/2000/svg">
<rect x="0.5" y="0.16748" width="48" height="48" rx="24" fill="#160046"/>
<path d="M26.93 30.9876C26.74 30.9876 26.55 30.9176 26.4 30.7676C26.11 30.4776 26.11 29.9976 26.4 29.7076L31.94 24.1676L26.4 18.6276C26.11 18.3376 26.11 17.8576 26.4 17.5676C26.69 17.2776 27.17 17.2776 27.46 17.5676L33.53 23.6376C33.82 23.9276 33.82 24.4076 33.53 24.6976L27.46 30.7676C27.31 30.9176 27.12 30.9876 26.93 30.9876Z" fill="white"/>
<path d="M32.83 24.9175H16C15.59 24.9175 15.25 24.5775 15.25 24.1675C15.25 23.7575 15.59 23.4175 16 23.4175H32.83C33.24 23.4175 33.58 23.7575 33.58 24.1675C33.58 24.5775 33.24 24.9175 32.83 24.9175Z" fill="white"/>
</svg>
