<svg width="24" height="24" viewBox="0 0 24 24" fill="none" xmlns="http://www.w3.org/2000/svg">
<path fill-rule="evenodd" clip-rule="evenodd" d="M19.5702 4.42474C19.0284 3.88209 17.9162 3.60487 16.1269 4.20132L7.63761 7.03107C7.63745 7.03112 7.63776 7.03101 7.63761 7.03107C6.25826 7.4925 5.28188 8.00847 4.66558 8.51778C4.04661 9.0293 3.86719 9.46459 3.86719 9.78355C3.86719 10.1023 4.04637 10.5368 4.66498 11.047C5.2811 11.555 6.25694 12.0691 7.63648 12.5282L10.1569 13.3683C10.3808 13.4429 10.5565 13.6187 10.6312 13.8426L11.4712 16.3626C11.9302 17.742 12.4449 18.7181 12.9536 19.3341C13.4644 19.9527 13.8999 20.1323 14.2197 20.1323C14.5395 20.1323 14.975 19.9527 15.4857 19.3341C15.9945 18.7181 16.5091 17.7423 16.9681 16.363L19.7976 7.87431C19.7975 7.87457 19.7977 7.87406 19.7976 7.87431C20.3892 6.08478 20.1129 4.96827 19.5702 4.42474ZM20.6317 3.36487C21.7614 4.49626 21.8898 6.32528 21.2218 8.34529L21.2212 8.34697L18.3913 16.8366C18.3913 16.8367 18.3914 16.8365 18.3913 16.8366C17.9003 18.3121 17.3124 19.4779 16.6424 20.2892C15.9744 21.0982 15.1549 21.6323 14.2197 21.6323C13.2845 21.6323 12.465 21.0982 11.797 20.2892C11.127 19.4779 10.5392 18.3125 10.0482 16.837L9.32676 14.6727L7.16289 13.9514C7.16277 13.9514 7.16301 13.9515 7.16289 13.9514C5.68761 13.4605 4.52195 12.8733 3.71065 12.2042C2.90175 11.5372 2.36719 10.7186 2.36719 9.78355C2.36719 8.84877 2.90151 8.02968 3.71004 7.36152C4.52117 6.6912 5.68637 6.10206 7.16177 5.60854L15.6525 2.77829C17.6732 2.10474 19.501 2.23252 20.6317 3.36487Z" fill="#3800B0"/>
<path fill-rule="evenodd" clip-rule="evenodd" d="M14.219 9.5285C14.5123 9.82099 14.5129 10.2959 14.2204 10.5892L10.6404 14.1792C10.348 14.4725 9.87309 14.4731 9.57979 14.1806C9.28648 13.8882 9.28582 13.4133 9.57831 13.12L13.1583 9.52998C13.4508 9.23668 13.9257 9.23602 14.219 9.5285Z" fill="#3800B0"/>
</svg>
