<svg width="313" height="253" viewBox="0 0 313 253" fill="none" xmlns="http://www.w3.org/2000/svg">
<path d="M210.981 119.774C210.45 116.464 196.925 42.7315 142.959 25.7871C121.876 19.169 101.191 23.1403 91.2465 25.258C13.28 41.9373 -11.7807 94.7552 4.92641 194.831C21.6335 294.907 689.918 292.127 745.608 253.209C801.299 214.29 740.039 16.9183 639.797 39.1574C539.554 61.3966 528.416 150.353 528.416 150.353C528.287 138.174 526.298 80.7237 481.079 39.1574C452.041 12.4179 419.554 5.66669 405.897 3.01884C350.073 -7.83564 306.052 13.6092 294.516 19.6982C234.848 51.2033 214.959 107.463 210.981 119.774Z" fill="#2D008D"/>
</svg>
