<svg width="343" height="306" viewBox="0 0 343 306" fill="none" xmlns="http://www.w3.org/2000/svg">
<path d="M-94.1915 131.928C-94.7728 128.304 -109.578 47.5771 -168.654 29.0253C-191.734 21.7794 -214.377 26.1274 -225.264 28.446C-310.613 46.7076 -338.047 104.536 -319.757 214.105C-301.468 323.675 430.097 320.631 491.061 278.021C552.025 235.41 484.964 19.3152 375.23 43.664C265.495 68.0127 253.302 165.408 253.302 165.408C253.161 152.074 250.983 89.1733 201.483 43.664C169.695 14.3878 134.132 6.99623 119.182 4.0972C58.0721 -7.78695 9.88239 15.6922 -2.74582 22.3588C-68.0642 56.8525 -89.8369 118.449 -94.1915 131.928Z" fill="#2D008D"/>
</svg>
