<svg width="24" height="24" viewBox="0 0 24 24" fill="none" xmlns="http://www.w3.org/2000/svg">
<path fill-rule="evenodd" clip-rule="evenodd" d="M3.50533 3.50531C3.0398 3.97083 2.75 4.77392 2.75 6.19995V9.80005C2.75 11.2261 3.0398 12.0292 3.50533 12.4947C3.97086 12.9602 4.77397 13.25 6.2 13.25H9.29081C9.40179 12.1022 9.74154 11.1428 10.4422 10.4422C11.1428 9.74154 12.1022 9.40179 13.25 9.29081V6.19995C13.25 4.77392 12.9602 3.97083 12.4947 3.50531C12.0291 3.03979 11.226 2.75 9.8 2.75H6.2C4.77397 2.75 3.97086 3.03979 3.50533 3.50531ZM2.44468 2.44464C3.32915 1.56019 4.62604 1.25 6.2 1.25H9.8C11.374 1.25 12.6709 1.56019 13.5553 2.44464C14.4398 3.3291 14.75 4.62598 14.75 6.19995V10C14.75 10.409 14.4223 10.7426 14.0134 10.7499C12.6994 10.7734 11.9471 11.0585 11.5028 11.5028C11.0585 11.9471 10.7734 12.6994 10.7499 14.0134C10.7426 14.4223 10.409 14.75 10 14.75H6.2C4.62604 14.75 3.32915 14.4398 2.44468 13.5554C1.5602 12.6709 1.25 11.374 1.25 9.80005V6.19995C1.25 4.62598 1.5602 3.3291 2.44468 2.44464Z" fill="#3800B0"/>
<path fill-rule="evenodd" clip-rule="evenodd" d="M4.76226 5.28057C5.55231 4.71412 6.59515 4.71609 7.38069 5.24966C7.72333 5.4824 7.81243 5.94884 7.57969 6.29149C7.34695 6.63413 6.88051 6.72323 6.53786 6.49049C6.2634 6.30406 5.90624 6.30607 5.63629 6.49962C5.29966 6.74097 4.83111 6.66374 4.58975 6.32711C4.3484 5.99048 4.42563 5.52193 4.76226 5.28057Z" fill="#3800B0"/>
<path fill-rule="evenodd" clip-rule="evenodd" d="M8.76226 5.28057C9.55231 4.71412 10.5952 4.71609 11.3807 5.24966C11.7233 5.4824 11.8124 5.94884 11.5797 6.29149C11.3469 6.63413 10.8805 6.72323 10.5379 6.49049C10.2634 6.30406 9.90624 6.30607 9.63629 6.49962C9.29966 6.74097 8.83111 6.66374 8.58975 6.32711C8.3484 5.99048 8.42563 5.52193 8.76226 5.28057Z" fill="#3800B0"/>
<path fill-rule="evenodd" clip-rule="evenodd" d="M6.06199 8.92993C6.16693 9.90721 6.99591 10.6699 8.00078 10.6699C9.00566 10.6699 9.00098 12.1699 8.00078 12.1699C6.09659 12.1699 4.55078 10.6242 4.55078 8.71997C4.55078 8.00583 5.1265 7.42993 5.84078 7.42993H10.1608C10.575 7.42993 10.9108 7.76572 10.9108 8.17993C10.9108 8.59415 10.575 8.92993 10.1608 8.92993H6.06199Z" fill="#3800B0"/>
<path fill-rule="evenodd" clip-rule="evenodd" d="M14 9.25H17.8C19.374 9.25 20.6709 9.56019 21.5553 10.4446C22.4398 11.3291 22.75 12.626 22.75 14.2V17.8C22.75 19.374 22.4398 20.6709 21.5553 21.5554C20.6709 22.4398 19.374 22.75 17.8 22.75H14.2C12.626 22.75 11.3291 22.4398 10.4447 21.5554C9.5602 20.6709 9.25 19.374 9.25 17.8V13.9866C9.27645 12.5106 9.59647 11.2879 10.4422 10.4422C11.2879 9.59647 12.5106 9.27657 13.9866 9.25012L14 9.25ZM14.0068 10.75C12.6969 10.7744 11.9464 11.0593 11.5028 11.5028C11.0593 11.9464 10.7744 12.6969 10.75 14.0068V17.8C10.75 19.2261 11.0398 20.0292 11.5053 20.4947C11.9709 20.9602 12.774 21.25 14.2 21.25H17.8C19.226 21.25 20.0291 20.9602 20.4947 20.4947C20.9602 20.0292 21.25 19.2261 21.25 17.8V14.2C21.25 12.7739 20.9602 11.9708 20.4947 11.5053C20.0291 11.0398 19.226 10.75 17.8 10.75H14.0068Z" fill="#3800B0"/>
<path fill-rule="evenodd" clip-rule="evenodd" d="M12.5898 13.1631C12.8311 12.8265 13.2997 12.7493 13.6363 12.9906C13.9062 13.1842 14.2634 13.1862 14.5379 12.9998C14.8805 12.767 15.3469 12.8561 15.5797 13.1988C15.8124 13.5414 15.7233 14.0078 15.3807 14.2406C14.5952 14.7742 13.5523 14.7761 12.7623 14.2097C12.4256 13.9683 12.3484 13.4998 12.5898 13.1631Z" fill="#3800B0"/>
<path fill-rule="evenodd" clip-rule="evenodd" d="M16.5898 13.1631C16.8311 12.8265 17.2997 12.7493 17.6363 12.9906C17.9062 13.1842 18.2634 13.1862 18.5379 12.9998C18.8805 12.767 19.3469 12.8561 19.5797 13.1988C19.8124 13.5414 19.7233 14.0078 19.3807 14.2406C18.5952 14.7742 17.5523 14.7761 16.7623 14.2097C16.4256 13.9683 16.3484 13.4998 16.5898 13.1631Z" fill="#3800B0"/>
<path fill-rule="evenodd" clip-rule="evenodd" d="M14.062 16.9302C14.167 17.9074 14.996 18.6702 16.0008 18.6702C17.0056 18.6702 17.8346 17.9074 17.9396 16.9302H14.062ZM12.5508 16.7201C12.5508 16.0057 13.1267 15.4302 13.8408 15.4302H18.1608C18.8748 15.4302 19.4508 16.0057 19.4508 16.7201C19.4508 18.6243 17.905 20.1702 16.0008 20.1702C14.0965 20.1702 12.5508 18.6243 12.5508 16.7201Z" fill="#3800B0"/>
</svg>
