<svg width="164" height="165" viewBox="0 0 164 165" fill="none" xmlns="http://www.w3.org/2000/svg">
<g filter="url(#filter0_b_366_31038)">
<g clip-path="url(#clip0_366_31038)">
<path d="M133.962 52.9306C150.531 81.6282 140.698 118.324 112.001 134.892C83.303 151.461 46.6076 141.628 30.0391 112.931C13.4705 84.2331 23.303 47.5377 52.0006 30.9691C80.6981 14.4006 117.394 24.2331 133.962 52.9306Z" fill="#00FF9E"/>
<path fill-rule="evenodd" clip-rule="evenodd" d="M59.2906 45.5469L66.0189 42.121L65.1536 40.4216L60.2403 42.9233L56.9851 36.5303L55.1701 37.4545L59.2906 45.5469ZM47.2305 45.7162L48.8921 47.658L51.3661 45.5409C51.5107 45.4172 51.6192 45.2845 51.6915 45.143C51.7704 44.9957 51.8128 44.8457 51.8185 44.6928C51.8308 44.5343 51.8061 44.379 51.7443 44.227C51.6835 44.0628 51.594 43.9116 51.4759 43.7737C51.3522 43.6291 51.2168 43.5173 51.0695 43.4384C50.9289 43.3539 50.7793 43.3055 50.6208 43.2931C50.4688 43.2752 50.314 43.2938 50.1564 43.349C49.9997 43.3921 49.8491 43.4754 49.7045 43.5991L47.2305 45.7162ZM53.3963 45.938C53.184 46.3018 52.9037 46.6327 52.5554 46.9307L50.0814 49.0478L51.9539 51.236L50.4064 52.5602L44.5021 45.6605L48.5237 42.2192C48.8719 41.9212 49.245 41.6987 49.6429 41.5517C50.0351 41.3982 50.4301 41.3277 50.8278 41.3402C51.2256 41.3527 51.6134 41.4534 51.9913 41.6423C52.3701 41.819 52.7142 42.088 53.0234 42.4494C53.3327 42.8108 53.5481 43.1956 53.6698 43.6038C53.7923 43.9997 53.8291 44.3952 53.7799 44.7901C53.7308 45.185 53.603 45.5676 53.3963 45.938ZM47.0617 56.0088L46.024 57.7462L40.4998 54.4466L40.4732 54.4912L44.5072 60.2856L43.8021 61.4661L36.7944 60.6502L36.7678 60.6948L42.292 63.9944L41.2476 65.743L33.4513 61.0863L34.9947 58.5024L41.3681 59.2417L41.3947 59.1971L37.7288 53.9249L39.2655 51.3521L47.0617 56.0088ZM37.0153 74.4791C37.2144 74.1872 37.3579 73.8472 37.4457 73.4592C37.5317 73.0796 37.5476 72.7152 37.4937 72.3661C37.4313 72.015 37.3087 71.6946 37.126 71.4049C36.9349 71.1134 36.6807 70.8652 36.3635 70.6604C36.0463 70.4555 35.6768 70.3054 35.255 70.2099C34.8333 70.1144 34.4352 70.0908 34.0607 70.139C33.6862 70.1873 33.3541 70.3027 33.0645 70.4854C32.7664 70.6663 32.5178 70.9026 32.3187 71.1945C32.1112 71.4845 31.9644 71.8193 31.8785 72.1988C31.7906 72.5869 31.7779 72.9564 31.8403 73.3075C31.8943 73.6567 32.0168 73.9771 32.208 74.2686C32.3926 74.5498 32.6426 74.7971 32.9579 75.0103C33.2751 75.2152 33.6445 75.3653 34.0663 75.4608C34.4881 75.5563 34.8862 75.5799 35.2607 75.5317C35.6371 75.475 35.9734 75.3605 36.2695 75.1881C36.5592 75.0054 36.8078 74.7691 37.0153 74.4791ZM39.3512 71.9752C39.4445 72.5816 39.4167 73.2137 39.2677 73.8717C39.1188 74.5296 38.8707 75.1164 38.5234 75.6319C38.1761 76.1474 37.7575 76.5669 37.2675 76.8905C36.7794 77.2056 36.226 77.4173 35.6074 77.5255C34.9822 77.6234 34.3196 77.5931 33.6194 77.4346C32.9193 77.2761 32.3125 77.019 31.7989 76.6633C31.2787 76.2973 30.8663 75.867 30.5615 75.3723C30.2586 74.8692 30.0615 74.3103 29.9701 73.6955C29.8788 73.0807 29.9075 72.4443 30.0565 71.7864C30.2054 71.1284 30.4526 70.5459 30.7979 70.0388C31.1452 69.5233 31.5639 69.1038 32.0539 68.7802C32.5439 68.4566 33.1015 68.2459 33.7266 68.148C34.3453 68.0398 35.0046 68.0649 35.7048 68.2234C36.4049 68.3819 37.015 68.6442 37.5351 69.0102C38.0487 69.3659 38.457 69.7953 38.7599 70.2984C39.0627 70.8015 39.2599 71.3604 39.3512 71.9752ZM38.3917 85.5498C38.3679 84.9622 38.2637 84.4211 38.0792 83.9265C37.886 83.4323 37.626 82.9971 37.2992 82.6208C36.9633 82.2363 36.5696 81.919 36.118 81.669C35.6578 81.4193 35.1489 81.2495 34.5913 81.1596L34.6785 83.3114C34.9499 83.3869 35.1966 83.4938 35.4186 83.6319C35.6406 83.7701 35.8334 83.9354 35.997 84.1278C36.1519 84.3206 36.2779 84.5449 36.3748 84.8006C36.4628 85.0481 36.5129 85.323 36.5251 85.6255C36.5412 86.023 36.491 86.3842 36.3743 86.7092C36.249 87.0346 36.0701 87.3188 35.8376 87.5619C35.5961 87.7968 35.3007 87.9819 34.9513 88.1172C34.6019 88.2526 34.2111 88.329 33.779 88.3465C33.347 88.364 32.9513 88.3195 32.5921 88.2129C32.2329 88.1063 31.9278 87.9455 31.6767 87.7306C31.4166 87.5075 31.2153 87.2387 31.0727 86.9242C30.9215 86.61 30.8378 86.2542 30.8217 85.8567C30.8094 85.5543 30.8414 85.276 30.9177 85.0219C30.9849 84.7595 31.0923 84.5257 31.2398 84.3207C31.3787 84.116 31.5531 83.9358 31.7632 83.7801C31.9646 83.6248 32.2019 83.4983 32.4749 83.4007L32.3877 81.249C31.8392 81.3837 31.35 81.594 30.9201 81.8797C30.4816 82.1658 30.1149 82.514 29.8199 82.9241C29.5159 83.3259 29.292 83.7808 29.1481 84.2886C28.9956 84.7968 28.9313 85.3448 28.9551 85.9324C28.9828 86.6151 29.1205 87.237 29.3683 87.7983C29.6158 88.3509 29.9508 88.822 30.3735 89.2117C30.7961 89.6014 31.3059 89.901 31.903 90.1105C32.4911 90.3117 33.1438 90.3977 33.861 90.3686C34.5783 90.3396 35.2262 90.2008 35.8047 89.9523C36.3742 89.6955 36.8538 89.3558 37.2435 88.9331C37.6332 88.5105 37.929 88.0138 38.1309 87.443C38.3324 86.8635 38.4194 86.2325 38.3917 85.5498ZM95.0307 55.0663C94.9679 55.2156 94.8888 55.3941 94.797 55.6011C94.5062 56.2568 94.0885 57.1988 93.6617 58.406C92.4166 58.0116 91.4604 57.8001 90.9213 57.6944C90.7823 57.6702 90.6393 57.6798 90.5045 57.7224C90.3697 57.765 90.247 57.8393 90.1469 57.9392C89.5915 58.4698 89.3394 59.1618 89.2264 59.714C89.1232 60.2163 89.4295 60.6719 89.8981 60.7257C90.9358 60.8481 91.9081 61.0436 92.8037 61.2785C92.4898 62.5595 92.2244 64.0088 92.0725 65.615C92.0725 65.615 92.7349 68.0152 94.1577 67.4569C94.2802 67.4079 94.388 67.3284 94.471 67.226C94.554 67.1236 94.6094 67.0017 94.6317 66.8721C94.7601 66.1337 95.0946 64.3831 95.7094 62.2489C96.7843 62.6845 97.642 63.116 98.2405 63.4172L98.2411 63.4175C98.4435 63.5193 98.6164 63.6063 98.7579 63.6734C98.9732 63.778 99.5103 63.628 99.7237 63.4763C99.7804 63.4359 99.8329 63.3949 99.8817 63.3528C100.637 62.7027 100.509 61.4939 99.6408 61.0084C98.5735 60.411 97.5508 59.9156 96.6005 59.5054C97.0177 58.3616 97.509 57.1872 98.0829 56.0552C98.1386 55.9453 98.1721 55.8255 98.1812 55.7027C98.1904 55.58 98.1751 55.4568 98.1363 55.3402C98.0975 55.2235 98.0359 55.1158 97.955 55.0232C97.8742 54.9306 97.7757 54.8549 97.6653 54.8006C97.1535 54.5554 96.444 54.3452 95.6871 54.5147C95.5417 54.5479 95.4063 54.6153 95.2921 54.7112C95.1779 54.8072 95.0883 54.9289 95.0307 55.0663ZM84.1573 65.4492L84.1586 65.3059C84.1589 64.6499 84.42 64.0198 84.8848 63.5541C86.1133 62.3446 87.1549 63.767 87.1549 63.767C86.8163 68.4781 87.8263 72.5496 87.8263 72.5496C87.8263 72.5496 88.7576 70.6427 90.6776 69.5684C92.3161 68.6521 93.6152 69.6526 94.0321 71.0885C94.1953 71.6551 94.4051 72.8938 94.6426 74.2959C94.9831 76.3064 95.3805 78.6526 95.7789 79.834C96.2557 81.2473 97.1362 82.2068 97.6147 82.6496C97.7176 82.7449 97.7892 82.8691 97.82 83.0059C97.8509 83.1427 97.8395 83.2858 97.7875 83.4163C97.5611 83.9846 97.0696 84.8338 96.183 84.7006C94.8668 84.5043 92.8571 81.1421 92.2072 77.755L92.189 77.66C91.5501 74.3298 91.1668 72.332 90.6044 72.4192C90.0367 72.5073 89.1364 73.5185 89.2849 76.9801C89.3597 78.7166 92.4101 85.7854 92.4101 85.7854C91.5417 88.0323 89.8407 86.7085 89.8407 86.7085C84.0651 75.1937 84.1328 68.0323 84.1573 65.4492ZM74.3926 80.3711C73.3492 82.0619 72.2609 81.1592 72.2609 81.1592C72.2609 81.1592 70.7507 79.2585 71.3579 77.4976C71.7581 76.335 72.7749 76.0458 73.4202 75.9831C73.489 75.9765 73.5585 75.9845 73.6239 76.0068C73.6893 76.029 73.7492 76.0648 73.7995 76.112C73.8499 76.1591 73.8895 76.2165 73.9159 76.2802C73.9423 76.3439 73.9547 76.4126 73.9524 76.4815C73.9136 77.863 74.2954 79.3382 74.4578 79.899C74.4805 79.9778 74.4863 80.0604 74.4751 80.1417C74.4639 80.223 74.4358 80.3012 74.3926 80.3711ZM59.1365 95.6557C59.1365 95.6557 62.3059 104.94 65.2056 103.266C68.1054 101.592 67.2801 97.0373 67.2801 97.0373C67.2801 97.0373 70.0146 100.746 72.3538 99.3958C74.6929 98.0453 75.9537 92.9966 70.6673 82.7689C70.6673 82.7689 69.3541 79.8994 67.2389 81.1207C67.0477 81.2309 66.9071 81.4112 66.8472 81.6231C66.7873 81.835 66.8129 82.0616 66.9185 82.2543C68.3872 84.9202 73.2574 94.2257 71.2378 96.6775C71.2378 96.6775 69.5322 98.9625 65.5692 86.0892C65.5692 86.0892 64.7615 83.9202 63.1173 84.9378C61.4732 85.9554 64.5511 92.8375 64.5511 92.8375C64.5511 92.8375 65.8164 98.5414 64.7344 99.6448C64.0381 100.355 63.1816 98.0258 62.5009 96.1749C62.1238 95.1494 61.8007 94.2708 61.5886 94.1369C60.9939 93.7612 60.3708 93.5751 59.8139 93.8612C59.257 94.1473 58.9592 95.1648 59.1365 95.6557ZM72.9158 83.5698C73.2733 84.9723 74.6238 89.7346 77.5501 94.4567C77.5501 94.4567 78.9059 95.255 79.704 93.9524C79.7724 93.8398 79.8107 93.7116 79.8152 93.5802C79.8197 93.4488 79.7904 93.3185 79.7299 93.2019C79.079 91.9436 76.8264 87.3523 75.9548 82.5229C75.9329 82.4019 75.8873 82.2865 75.8204 82.1833C75.7536 82.0802 75.6669 81.9913 75.5654 81.9219C75.4638 81.8525 75.3494 81.8038 75.2288 81.7788C75.1082 81.7538 74.9837 81.7529 74.8625 81.7761C74.3033 81.8877 73.6102 82.1469 73.1062 82.737C73.0104 82.8509 72.9431 82.9858 72.9099 83.1307C72.8768 83.2756 72.8788 83.4261 72.9158 83.5698ZM77.8032 83.5915C77.3864 82.0854 76.3337 77.2732 80.3141 74.3414C80.7901 73.9823 81.3711 73.7898 81.9667 73.7939C82.6452 73.8076 83.4275 74.0965 83.7154 75.2508C84.2632 77.4504 81.9151 78.2925 81.1576 76.6251C81.1576 76.6251 79.5475 78.4211 80.1885 81.4927C80.2007 81.5536 80.2299 81.6097 80.2728 81.6545C80.3156 81.6994 80.3704 81.7312 80.4307 81.7462C80.491 81.7613 80.5544 81.759 80.6136 81.7396C80.6728 81.7202 80.7253 81.6845 80.7651 81.6367C81.5026 80.7461 83.1479 79.1441 84.9474 79.7508C86.9972 80.4412 87.2422 83.6365 87.2422 83.6365C87.2422 83.6365 87.5801 89.2749 84.0487 91.8792C83.4181 92.3444 82.2249 92.3996 81.5217 92.0594C80.5319 91.5803 78.7076 88.4096 80.42 87.1813C81.0615 86.7205 82.2102 87.2734 82.3823 88.456C82.3872 88.4915 82.4003 88.5253 82.4206 88.5548C82.4409 88.5843 82.4679 88.6087 82.4993 88.626C82.5307 88.6432 82.5657 88.6529 82.6016 88.6543C82.6375 88.6557 82.6733 88.6488 82.7061 88.634C83.4174 88.315 85.1005 87.1251 84.6315 83.0953C84.6115 82.8939 84.5424 82.7006 84.4302 82.5323C84.2109 82.2162 83.773 81.9252 83.0056 82.6332C82.8248 82.7994 82.624 83.0054 82.4077 83.2273L82.4076 83.2274C81.2962 84.3673 79.775 85.9277 78.4453 84.6817C78.1351 84.3842 77.913 84.0071 77.8032 83.5915ZM119.846 54.5257C119.775 54.5782 119.787 54.7037 120.126 55.9278C120.168 56.0776 120.209 56.2257 120.248 56.3654C120.38 56.8421 120.485 57.2197 120.474 57.2244L120.473 57.224L120.472 57.2232C120.471 57.2224 120.47 57.221 120.469 57.2187C120.425 57.1423 120.13 57.111 119.225 57.0286C118.753 56.9857 118.425 56.9072 118.221 56.8585C118.035 56.8139 117.953 56.7943 117.961 56.8501C117.973 56.9312 118.407 57.2795 118.789 57.5859C118.956 57.7204 119.114 57.8468 119.221 57.939C119.573 58.241 120.373 58.8865 120.373 58.8865C120.373 58.8865 119.623 59.4214 119.253 59.7856C119.141 59.8955 118.936 60.0616 118.709 60.2454C118.183 60.6711 117.54 61.1916 117.671 61.3278C117.799 61.4598 118.543 61.4192 119.194 61.3838L119.194 61.3838C119.504 61.3668 119.792 61.3511 119.982 61.3558C120.571 61.3703 121.292 61.1801 121.292 61.1801C121.292 61.1801 120.928 62.4729 120.851 63.1247C120.772 63.7749 120.699 65.0022 120.863 64.8075C121.028 64.6129 123.211 61.8882 123.667 61.1467C123.667 61.1467 124.882 62.8148 125.326 63.3649C125.382 63.4339 125.435 63.501 125.485 63.5646L125.486 63.5657C125.835 64.0078 126.05 64.2797 126.12 63.8655C126.172 63.5628 125.978 62.6405 125.82 61.894C125.731 61.4715 125.654 61.1053 125.64 60.9397C125.603 60.483 125.375 59.303 125.375 59.303C125.375 59.303 126.508 59.2539 127.187 59.165C127.456 59.1298 127.805 59.1309 128.127 59.1318C128.62 59.1332 129.05 59.1345 129.036 59.0059C129.021 58.8569 128.018 58.3809 127.238 58.0107L127.238 58.0106C126.9 57.8504 126.604 57.71 126.449 57.6246C125.933 57.3419 124.655 56.7439 124.655 56.7439C124.655 56.7439 124.894 54.0105 124.741 53.266C124.73 53.2125 124.708 53.1365 124.648 53.1134C124.475 53.0422 124.154 53.4848 123.597 54.2523C123.427 54.4872 123.235 54.7524 123.018 55.0427C122.696 55.4719 122.432 55.8083 122.283 55.996C122.033 55.8391 121.636 55.5853 121.153 55.262C120.998 55.1577 120.861 55.0643 120.74 54.9818L120.737 54.9798L120.735 54.9786L120.735 54.9786C120.169 54.5925 119.953 54.4458 119.846 54.5257ZM38.3151 109.818C42.2416 111.638 44.1142 111.356 44.1142 111.356C44.1142 111.356 43.6644 109.428 43.3986 108.675C43.3529 108.544 43.2698 108.271 43.1582 107.905C42.6319 106.179 41.4726 102.377 40.6268 101.512C39.6029 100.46 38.4077 101.294 37.8955 102.562C37.3803 103.832 38.3653 105.78 38.3653 105.78C37.77 105.37 35.9093 104.837 35.4162 105.518C34.9231 106.198 34.3885 107.998 38.3151 109.818ZM75.4314 35.4184L70.5834 36.6197L71.0545 38.5211L76.4314 37.1888L76.8682 38.9517L69.5144 40.7739L67.3302 31.9594L74.6841 30.1372L75.1209 31.9001L69.744 33.2324L70.1621 34.9197L75.0101 33.7185L75.4314 35.4184ZM83.461 38.9771L85.4844 39.0181L85.6305 31.8066L89.0547 31.876L89.0926 30.0083L80.2209 29.8285L80.183 31.6962L83.6072 31.7656L83.461 38.9771ZM100.187 38.1175L95.3918 36.7208L94.844 38.6016L100.162 40.1507L99.6546 41.8944L92.3806 39.7758L94.9201 31.057L102.194 33.1756L101.686 34.9194L96.3677 33.3703L95.8816 35.0394L100.677 36.436L100.187 38.1175ZM105.695 43.6038L108.568 38.974L110.145 39.9521C110.483 40.1618 110.756 40.4025 110.964 40.6741C111.176 40.9383 111.32 41.2312 111.396 41.5528C111.475 41.867 111.482 42.2016 111.414 42.5566C111.346 42.9116 111.194 43.2801 110.957 43.6623C110.72 44.0444 110.457 44.3446 110.169 44.5628C109.881 44.781 109.576 44.9278 109.255 45.0031C108.938 45.071 108.611 45.0721 108.276 45.0063C107.944 44.9331 107.61 44.7916 107.272 44.5819L105.695 43.6038ZM103.007 44.0732L106.314 46.1251C106.887 46.4808 107.469 46.7246 108.059 46.8565C108.653 46.9811 109.23 46.9875 109.787 46.8757C110.345 46.7638 110.872 46.5306 111.367 46.1761C111.861 45.8215 112.298 45.3393 112.677 44.7293C113.055 44.1193 113.293 43.514 113.391 42.9132C113.489 42.3124 113.464 41.7372 113.317 41.1876C113.169 40.638 112.905 40.1283 112.525 39.6583C112.15 39.181 111.675 38.7645 111.102 38.4088L107.795 36.3568L103.007 44.0732ZM126.156 81.7969C125.971 81.3023 125.867 80.7612 125.843 80.1736C125.815 79.4909 125.902 78.8599 126.104 78.2804C126.306 77.7096 126.602 77.2129 126.991 76.7903C127.381 76.3676 127.861 76.0279 128.43 75.7711C129.009 75.5226 129.656 75.3838 130.374 75.3548C131.091 75.3257 131.744 75.4117 132.332 75.613C132.929 75.8224 133.439 76.122 133.861 76.5117C134.284 76.9014 134.619 77.3725 134.866 77.9251C135.114 78.4864 135.252 79.1083 135.28 79.791C135.303 80.3786 135.239 80.9266 135.087 81.4348C134.943 81.9426 134.719 82.3975 134.415 82.7993C134.12 83.2094 133.753 83.5576 133.315 83.8437C132.885 84.1294 132.396 84.3397 131.847 84.4744L131.76 82.3227C132.033 82.2251 132.27 82.0986 132.471 81.9433C132.682 81.7876 132.856 81.6074 132.995 81.4027C133.142 81.1977 133.25 80.9639 133.317 80.7015C133.393 80.4474 133.425 80.1691 133.413 79.8667C133.397 79.4692 133.313 79.1134 133.162 78.7992C133.019 78.4847 132.818 78.2159 132.558 77.9928C132.307 77.7779 132.002 77.6171 131.643 77.5105C131.283 77.4039 130.888 77.3594 130.456 77.3769C130.024 77.3944 129.633 77.4708 129.283 77.6062C128.934 77.7415 128.639 77.9266 128.397 78.1615C128.165 78.4046 127.986 78.6888 127.86 79.0142C127.744 79.3392 127.693 79.7004 127.71 80.0979C127.722 80.4004 127.772 80.6753 127.86 80.9228C127.957 81.1785 128.083 81.4028 128.238 81.5956C128.401 81.788 128.594 81.9533 128.816 82.0915C129.038 82.2296 129.285 82.3365 129.556 82.412L129.643 84.5638C129.086 84.4739 128.577 84.3041 128.117 84.0544C127.665 83.8044 127.271 83.4871 126.936 83.1026C126.609 82.7263 126.349 82.2911 126.156 81.7969ZM126.789 92.2642C126.877 91.8762 127.02 91.5362 127.219 91.2443C127.427 90.9543 127.676 90.718 127.965 90.5353C128.261 90.3629 128.598 90.2484 128.974 90.1917C129.349 90.1435 129.747 90.1671 130.168 90.2626C130.59 90.3581 130.96 90.5082 131.277 90.7131C131.592 90.9263 131.842 91.1736 132.027 91.4548C132.218 91.7463 132.34 92.0667 132.394 92.4159C132.457 92.767 132.444 93.1365 132.356 93.5246C132.27 93.9041 132.124 94.2389 131.916 94.5289C131.717 94.8208 131.468 95.0571 131.17 95.238C130.881 95.4207 130.549 95.5361 130.174 95.5844C129.8 95.6326 129.401 95.609 128.98 95.5135C128.558 95.418 128.188 95.2679 127.871 95.063C127.554 94.8582 127.3 94.61 127.109 94.3185C126.926 94.0288 126.803 93.7084 126.741 93.3573C126.687 93.0082 126.703 92.6438 126.789 92.2642ZM124.967 91.8517C124.818 92.5097 124.79 93.1418 124.883 93.7482C124.975 94.363 125.172 94.9219 125.475 95.425C125.778 95.9281 126.186 96.3575 126.7 96.7132C127.22 97.0792 127.83 97.3415 128.53 97.5C129.23 97.6585 129.889 97.6836 130.508 97.5754C131.133 97.4775 131.691 97.2668 132.181 96.9432C132.671 96.6196 133.089 96.2001 133.437 95.6846C133.782 95.1775 134.029 94.595 134.178 93.937C134.327 93.2791 134.356 92.6427 134.265 92.0279C134.173 91.4131 133.976 90.8542 133.673 90.3511C133.368 89.8564 132.956 89.4261 132.436 89.0601C131.922 88.7044 131.315 88.4473 130.615 88.2888C129.915 88.1303 129.252 88.1 128.627 88.1979C128.009 88.3061 127.455 88.5178 126.967 88.8329C126.477 89.1565 126.059 89.576 125.711 90.0915C125.364 90.6071 125.116 91.1938 124.967 91.8517ZM118.211 107.977L117.173 109.715L124.969 114.371L126.506 111.799L122.84 106.526L122.867 106.482L129.24 107.221L130.783 104.637L122.987 99.9804L121.943 101.729L127.467 105.029L127.44 105.073L120.433 104.257L119.727 105.438L123.762 111.232L123.735 111.277L118.211 107.977ZM115.343 118.065L117.004 120.007L114.53 122.124C114.386 122.248 114.235 122.331 114.078 122.374C113.921 122.43 113.766 122.448 113.614 122.43C113.455 122.418 113.306 122.37 113.165 122.285C113.018 122.206 112.882 122.094 112.759 121.95C112.641 121.812 112.551 121.661 112.49 121.496C112.429 121.344 112.404 121.189 112.416 121.031C112.422 120.878 112.464 120.728 112.543 120.58C112.616 120.439 112.724 120.306 112.869 120.183L115.343 118.065ZM111.679 118.793C111.331 119.091 111.051 119.422 110.838 119.785C110.632 120.156 110.504 120.538 110.455 120.933C110.406 121.328 110.442 121.724 110.565 122.12C110.687 122.528 110.902 122.913 111.211 123.274C111.521 123.635 111.865 123.904 112.243 124.081C112.621 124.27 113.009 124.371 113.407 124.383C113.805 124.396 114.2 124.325 114.592 124.172C114.99 124.025 115.363 123.802 115.711 123.504L119.733 120.063L113.828 113.163L112.281 114.487L114.153 116.676L111.679 118.793ZM98.2158 123.602L104.944 120.177L109.065 128.269L107.25 129.193L103.994 122.8L99.0811 125.302L98.2158 123.602ZM93.6513 129.104L88.8033 130.305L89.2246 132.005L94.0726 130.804L94.4907 132.491L89.1138 133.823L89.5506 135.586L96.9045 133.764L94.7203 124.95L87.3665 126.772L87.8033 128.535L93.1802 127.202L93.6513 129.104ZM78.7503 126.704L80.7736 126.745L80.6275 133.957L84.0517 134.026L84.0138 135.894L75.1421 135.714L75.18 133.846L78.6041 133.916L78.7503 126.704ZM68.8429 129.003L64.0475 127.606L63.5578 129.287L68.3531 130.684L67.867 132.353L62.5485 130.804L62.0406 132.548L69.3146 134.666L71.854 125.948L64.5801 123.829L64.0722 125.573L69.3907 127.122L68.8429 129.003ZM55.6665 126.749L58.5393 122.12L56.9629 121.142C56.6249 120.932 56.2903 120.79 55.9591 120.717C55.6233 120.651 55.297 120.652 54.98 120.72C54.6584 120.796 54.3536 120.942 54.0656 121.161C53.7775 121.379 53.5149 121.679 53.2778 122.061C53.0407 122.443 52.8883 122.812 52.8207 123.167C52.7531 123.522 52.7592 123.856 52.8391 124.171C52.9144 124.492 53.0584 124.785 53.271 125.049C53.4791 125.321 53.7521 125.562 54.0902 125.771L55.6665 126.749ZM57.9205 119.598L61.2275 121.65L56.4396 129.367L53.1326 127.315C52.5594 126.959 52.085 126.542 51.7094 126.065C51.3293 125.595 51.0654 125.085 50.9178 124.536C50.7703 123.986 50.7455 123.411 50.8435 122.81C50.9415 122.209 51.1797 121.604 51.5582 120.994C51.9366 120.384 52.3733 119.902 52.8681 119.547C53.3629 119.193 53.8893 118.96 54.4472 118.848C55.0052 118.736 55.5814 118.742 56.1758 118.867C56.7657 118.999 57.3473 119.243 57.9205 119.598Z" fill="#3800B0"/>
</g>
</g>
<defs>
<filter id="filter0_b_366_31038" x="-3.96094" y="-3.03088" width="171.922" height="171.923" filterUnits="userSpaceOnUse" color-interpolation-filters="sRGB">
<feFlood flood-opacity="0" result="BackgroundImageFix"/>
<feGaussianBlur in="BackgroundImageFix" stdDeviation="2"/>
<feComposite in2="SourceAlpha" operator="in" result="effect1_backgroundBlur_366_31038"/>
<feBlend mode="normal" in="SourceGraphic" in2="effect1_backgroundBlur_366_31038" result="shape"/>
</filter>
<clipPath id="clip0_366_31038">
<rect width="120" height="120" fill="white" transform="translate(0.0390625 60.9691) rotate(-30)"/>
</clipPath>
</defs>
</svg>
