<svg width="78" height="81" viewBox="0 0 78 81" fill="none" xmlns="http://www.w3.org/2000/svg">
<g clip-path="url(#clip0_5717_67565)">
<path d="M17.8707 23.7697C15.7647 25.5338 12.045 27.1612 8.24327 27.4484C4.71507 27.7218 0.585219 26.874 0.133937 28.1868C0.0655265 28.392 0.0791663 28.6244 0.215987 28.9115C1.33732 31.4279 8.01086 30.3748 12.4006 32.809C19.1971 36.5833 20.3048 48.768 20.8381 54.7441C21.2211 58.9423 21.2348 65.4381 22.4655 65.5612C22.6433 65.5748 22.7937 65.4654 22.8621 65.4107C24.3253 64.2346 25.0501 40.6039 28.9476 35.7355C29.8775 34.5731 31.2724 32.5766 33.8707 31.0723C38.698 28.2689 44.5784 28.7612 44.6878 27.3115C44.7014 27.2022 44.674 27.0654 44.5237 26.833C42.951 24.4945 36.9886 26.1902 33.5835 24.2757C27.0604 20.6107 25.433 1.17821 25.0638 1.00047C24.8314 0.891032 24.6946 0.891031 24.5305 0.918415C21.4535 1.34231 25.4057 17.4381 17.8707 23.7697Z" fill="#00FF9E"/>
<path d="M61.0004 23.7149C58.4424 21.5131 54.0116 23.0311 51.6732 20.2277C51.4414 19.9542 51.304 19.708 51.3317 19.4482C51.4958 17.8072 57.6773 19.12 60.9183 16.1251C65.1573 12.2003 62.504 2.58668 64.4188 2.28575C64.5552 2.25847 64.665 2.2995 64.8568 2.36781C67.947 3.53027 64.8701 12.5695 68.7809 15.6601C70.9696 17.3832 75.1265 17.0687 77.6291 19.2431C77.7799 19.3662 77.985 19.5713 77.9706 19.8174C77.9029 21.1029 72.145 20.0772 68.9183 22.8123C64.4055 26.6413 66.3337 36.5422 65.0209 36.5969C64.9932 36.5969 64.9388 36.5969 64.8424 36.5422C62.6004 35.3662 64.5419 26.7781 61.0004 23.7149Z" fill="#BFACE9"/>
<path d="M48.8583 51.6806C53.3712 48.0704 50.0481 37.5405 53.3568 36.679C53.5353 36.638 53.6994 36.5969 53.9045 36.638C56.5024 37.2534 52.6594 49.2328 57.4183 53.2534C61.3158 56.5354 69.7947 53.4995 70.1363 55.1816C70.164 55.2772 70.1363 55.3593 70.1096 55.4687C69.5896 57.7251 63.5865 57.5747 60.1404 59.7627C52.8378 64.4123 55.1619 80.7675 53.0153 80.7675C52.9742 80.7675 52.9332 80.7542 52.8512 80.7265C49.2409 79.6331 52.7004 66.4226 46.5879 60.5696C42.6494 56.8088 35.4699 56.7952 35.6478 54.826C35.6478 54.7576 35.6751 54.6208 35.8119 54.3883C37.5076 51.5303 45.0837 54.7165 48.8583 51.6806Z" fill="#FFD900"/>
</g>
<defs>
<clipPath id="clip0_5717_67565">
<rect width="77.9487" height="80" fill="white" transform="translate(0.0507812 0.836304)"/>
</clipPath>
</defs>
</svg>
