<svg width="112" height="57" viewBox="0 0 112 57" fill="none" xmlns="http://www.w3.org/2000/svg">
<path d="M1.10114 36.6876C1.10114 36.6876 -2.79921 56.473 4.0835 56.473C10.9662 56.473 14.1781 47.517 14.1781 47.517C14.1781 47.517 15.234 56.93 20.786 56.93C26.3381 56.93 33.7714 49.2384 34.8725 25.5982C34.8725 25.5982 35.4841 19.1404 30.4634 19.1404C30.0099 19.14 29.5742 19.3165 29.2498 19.6322C28.9254 19.9479 28.7381 20.3776 28.7281 20.8291C28.6026 27.0843 27.7083 48.6552 21.5932 50.944C21.5932 50.944 16.2085 53.2587 22.3846 26.2691C22.3846 26.2691 23.176 21.5778 19.2033 21.6994C15.2306 21.821 13.6365 37.2359 13.6365 37.2359C13.6365 37.2359 10.0267 48.6901 6.96637 49.5423C3.906 50.3946 7.70008 37.7842 7.02742 36.5041C6.35475 35.224 5.43675 34.2524 4.15133 34.1894C2.86591 34.1263 1.28994 35.6316 1.10114 36.6876Z" fill="white"/>
<path d="M38.0516 29.3348C37.2467 32.1989 34.7561 42.0646 35.1122 53.4783C35.1122 53.4783 36.7051 56.2928 39.4648 54.7944C39.7022 54.6641 39.9021 54.4753 40.0452 54.246C40.1883 54.0167 40.2699 53.7547 40.2822 53.485C40.4167 50.5759 41.1255 40.0876 44.5375 30.5946C44.623 30.3567 44.6603 30.1043 44.6473 29.852C44.6344 29.5997 44.5714 29.3524 44.462 29.1244C44.3526 28.8965 44.1989 28.6923 44.0099 28.5238C43.8208 28.3553 43.6002 28.2257 43.3606 28.1425C42.2504 27.7665 40.7502 27.5154 39.2466 28.048C38.9589 28.1522 38.7003 28.3233 38.4925 28.5472C38.2846 28.771 38.1335 29.041 38.0516 29.3348V29.3348Z" fill="white"/>
<path d="M39.3687 24.371C39.3687 24.371 40.3782 27.0967 43.9733 25.1591C44.1221 25.079 44.2525 24.9688 44.356 24.8356C44.4596 24.7024 44.5341 24.5492 44.5748 24.3857C44.8619 23.2204 45.6985 20.2021 47.1875 17.7826C47.2625 17.6622 47.3108 17.5272 47.3294 17.3867C47.3479 17.2461 47.3362 17.1033 47.2951 16.9676C47.2539 16.8319 47.1842 16.7065 47.0906 16.5998C46.997 16.493 46.8816 16.4073 46.7522 16.3483C45.5391 15.7967 43.4318 15.2664 41.5246 16.9248C38.6338 19.4354 39.3687 24.371 39.3687 24.371Z" fill="white"/>
<path d="M46.7319 34.3954C47.5379 31.2859 50.6096 21.6375 60.7087 20.5094C61.9251 20.3592 63.1573 20.6137 64.2134 21.2333C65.4072 21.955 66.5027 23.2733 65.8289 25.624C64.5435 30.1026 59.4979 29.1884 59.863 25.4417C59.863 25.4417 55.151 26.9841 53.1352 33.1108C53.0944 33.2317 53.0888 33.3615 53.1189 33.4854C53.1491 33.6093 53.2139 33.7222 53.3057 33.811C53.3976 33.8998 53.5129 33.9609 53.6381 33.9872C53.7634 34.0135 53.8936 34.004 54.0137 33.9597C56.2419 33.1322 60.8172 31.9715 63.3971 34.9009C66.3365 38.2367 63.4887 44.1766 63.4887 44.1766C63.4887 44.1766 58.295 54.5613 49.3321 55.5678C47.7313 55.7479 45.5505 54.6198 44.6483 53.2914C43.3787 51.4214 43.39 43.9019 47.7007 43.4752C49.3163 43.3142 50.7928 45.4792 49.8838 47.7613C49.856 47.8295 49.8446 47.9032 49.8504 47.9766C49.8563 48.05 49.8792 48.121 49.9173 48.1841C49.9555 48.2471 50.0079 48.3004 50.0704 48.3398C50.1329 48.3792 50.2037 48.4035 50.2772 48.4109C51.8713 48.5741 56.0904 48.1857 59.3973 40.5301C59.5688 40.151 59.6445 39.7358 59.6177 39.3209C59.5522 38.5328 59.0717 37.5646 56.9779 38.0363C53.9537 38.7118 48.0523 41.2787 46.7545 36.9961C46.508 36.1476 46.5002 35.248 46.7319 34.3954V34.3954Z" fill="white"/>
<path d="M76.8381 8.37519C74.2785 12.722 66.5389 25.3752 64.9561 52.3153C64.9561 52.3153 66.6237 56.4201 70.4788 53.3128C70.4788 53.3128 72.3136 37.5939 73.9654 34.4258C77.2586 28.111 79.9007 27.2362 81.0018 27.6629C82.103 28.0896 80.6954 32.1111 78.3711 38.8087C76.0467 45.5062 76.1688 53.5571 78.31 55.2593C79.7514 56.4077 81.4993 55.4012 82.4862 54.6221C82.7131 54.4432 82.8803 54.2002 82.9661 53.9249C83.0518 53.6497 83.052 53.3551 82.9667 53.0797C82.5699 51.7996 81.9888 49.1866 82.5925 46.1806C83.4494 41.916 87.7613 31.6799 88.4713 28.8169C89.205 25.8323 87.9207 22.716 84.0622 22.6631C79.54 22.6023 75.9223 25.0397 75.9223 25.0397C75.9223 25.0397 78.3089 16.7536 83.7536 8.71519C83.7536 8.71519 83.3613 5.11253 79.9312 6.00306C78.6253 6.35447 77.5128 7.20763 76.8381 8.37519V8.37519Z" fill="white"/>
<path d="M106.715 1.3241C104.341 3.12543 97.2318 7.74134 90.6069 17.0621C90.6069 17.0621 89.3192 22.0158 92.4259 22.4841C92.6942 22.5227 92.968 22.4921 93.221 22.3951C93.474 22.2981 93.6977 22.138 93.8707 21.9302C95.7406 19.6909 102.658 11.7482 111.132 6.22147C111.344 6.08303 111.527 5.90413 111.669 5.69508C111.811 5.48603 111.911 5.25096 111.962 5.00343C112.012 4.75591 112.014 4.50082 111.965 4.25289C111.916 4.00496 111.819 3.76908 111.678 3.55887C111.019 2.59629 109.972 1.49297 108.45 1.01675C108.157 0.926403 107.847 0.907162 107.545 0.96063C107.243 1.0141 106.958 1.13872 106.715 1.3241V1.3241Z" fill="white"/>
<path d="M96.6948 1.77895C98.6427 3.47783 103.911 8.40897 108.811 16.6399C109.857 18.3962 108.844 20.6805 106.83 21.0611C106.7 21.0858 106.564 21.105 106.422 21.1185C105.886 21.1691 104.776 20.8843 104.5 20.4768C103.004 18.3107 99.1481 11.6367 91.7577 6.12353C90.9788 5.54598 90.9019 4.42015 91.6017 3.63206C92.3705 2.76517 93.5304 1.79246 95.0646 1.41868C95.3454 1.34387 95.6402 1.33755 95.9239 1.40026C96.2077 1.46298 96.4721 1.59287 96.6948 1.77895V1.77895Z" fill="white"/>
</svg>
